<svg xmlns="http://www.w3.org/2000/svg" width="17" height="21" viewBox="0 0 17 21">
  <g id="doc" transform="translate(-116.921 -68.808)">
    <path id="Контур_144" data-name="Контур 144" d="M114.3,69H102.479a2.607,2.607,0,0,1-2.589-2.618V50.618A2.607,2.607,0,0,1,102.479,48h7.755a.771.771,0,0,1,.548.229l5.881,5.949a.788.788,0,0,1,.227.554V66.382A2.607,2.607,0,0,1,114.3,69ZM102.479,49.567a1.046,1.046,0,0,0-1.039,1.051V66.382a1.046,1.046,0,0,0,1.039,1.051H114.3a1.046,1.046,0,0,0,1.039-1.051V55.057l-5.429-5.49Z" transform="translate(17.031 20.808)" fill="#e56606"/>
    <path id="Контур_145" data-name="Контур 145" d="M291.723,55.439h-4.073a2.594,2.594,0,0,1-2.591-2.591V48.776a.776.776,0,1,1,1.551,0v4.073a1.041,1.041,0,0,0,1.04,1.04h4.073a.776.776,0,0,1,0,1.551Z" transform="translate(-158.578 20.808)" fill="#e56606"/>
    <path id="Контур_146" data-name="Контур 146" d="M198.535,294.915a.776.776,0,0,1-.548-.227l-2.815-2.815a.776.776,0,0,1,1.1-1.1l2.267,2.267,2.267-2.267a.776.776,0,1,1,1.1,1.1l-2.815,2.812A.776.776,0,0,1,198.535,294.915Z" transform="translate(-73.114 -209.036)" fill="#e56606"/>
    <path id="Контур_147" data-name="Контур 147" d="M250.176,224.266a.805.805,0,0,1-.776-.832v-6.6a.777.777,0,1,1,1.551,0v6.6A.805.805,0,0,1,250.176,224.266Z" transform="translate(-124.755 -138.929)" fill="#e56606"/>
  </g>
</svg>
