<svg xmlns="http://www.w3.org/2000/svg" width="17" height="21"><g fill="#e56606"><path data-name="Контур 144" d="M14.41 21H2.589A2.607 2.607 0 010 18.382V2.618A2.607 2.607 0 012.589 0h7.755a.771.771 0 01.548.229l5.881 5.949a.788.788 0 01.227.554v11.65A2.607 2.607 0 0114.41 21zM2.589 1.567A1.046 1.046 0 001.55 2.618v15.764a1.046 1.046 0 001.039 1.051H14.41a1.046 1.046 0 001.039-1.051V7.057l-5.429-5.49z"/><path data-name="Контур 145" d="M16.224 7.439h-4.073A2.594 2.594 0 019.56 4.848V.776a.776.776 0 111.551 0v4.073a1.041 1.041 0 001.04 1.04h4.073a.776.776 0 010 1.551z"/><path data-name="Контур 146" d="M8.5 17.071a.776.776 0 01-.548-.227l-2.815-2.815a.778.778 0 011.1-1.1l2.267 2.267 2.267-2.267a.778.778 0 111.1 1.1l-2.815 2.812a.776.776 0 01-.556.23z"/><path data-name="Контур 147" d="M8.5 16.529a.805.805 0 01-.776-.832v-6.6a.777.777 0 111.551 0v6.6a.805.805 0 01-.775.832z"/></g></svg>