<svg xmlns="http://www.w3.org/2000/svg" width="170" height="58.123" viewBox="0 0 170 58.123">
  <g id="logo" transform="translate(-135 -38)">
    <path id="Контур_1" data-name="Контур 1" d="M172.974,92.154l-6.6-11.054a29.271,29.271,0,0,1-7.577.8l5.794,10.252Z" transform="translate(93.426 -20.101)" fill="#e56606" fill-rule="evenodd"/>
    <path id="Контур_2" data-name="Контур 2" d="M51.726,72.327c0-5.973-3.744-10.608-10.787-10.608H34.7V82.935h6.24c6.775,0,10.787-4.814,10.787-10.608M27.3,89.353V55.3H40.939C51.726,55.3,59.3,62.075,59.3,72.327S51.815,89.264,40.939,89.264H27.3Z" transform="translate(107.7 -17.3)" fill="#333" fill-rule="evenodd"/>
    <path id="Контур_3" data-name="Контур 3" d="M70.2,89.353V55.3H94.626v6.418H77.51V68.85H94.269v6.418H77.51v7.666H94.626v6.418Z" transform="translate(103.043 -17.3)" fill="#333" fill-rule="evenodd"/>
    <path id="Контур_4" data-name="Контур 4" d="M125.7,89.353l-10.43-13.639L112.6,78.923v10.43h-7.4V55.3h7.4V70.544L124.812,55.3h9L120.087,71.257l14.709,18.1Z" transform="translate(99.244 -17.3)" fill="#333" fill-rule="evenodd"/>
    <path id="Контур_5" data-name="Контур 5" d="M195.718,62.621l-5.349,14.62h10.787Zm9.539,26.744-2.139-5.794h-14.8l-2.139,5.794H177.8L191.172,55.4h9.093l13.372,33.964Z" transform="translate(91.363 -17.311)" fill="#333" fill-rule="evenodd"/>
    <path id="Контур_6" data-name="Контур 6" d="M150.71,70.9V61.718h7.845c2.942,0,5.081,1.694,5.081,4.546,0,2.764-2.139,4.546-5.081,4.546H150.71Zm20.414-4.636c0-5.973-4.1-10.965-11.589-10.965H143.4V89.264h7.31V77.23h8.825c7.4,0,11.589-4.992,11.589-10.965" transform="translate(95.097 -17.3)" fill="#333" fill-rule="evenodd"/>
    <g id="Сгруппировать_1" data-name="Сгруппировать 1" transform="translate(135 82.038)">
      <path id="Контур_7" data-name="Контур 7" d="M27.3,111.653a6.7,6.7,0,0,1,6.775-6.953,6.122,6.122,0,0,1,4.9,2.407l-.981.624a4.982,4.982,0,0,0-3.922-1.961,5.89,5.89,0,0,0,0,11.767A4.851,4.851,0,0,0,38,115.576l.981.624a6.122,6.122,0,0,1-4.9,2.407,6.652,6.652,0,0,1-6.775-6.953" transform="translate(-27.3 -104.7)" fill="#333" fill-rule="evenodd"/>
      <path id="Контур_8" data-name="Контур 8" d="M56.156,111.653c0-3.388-2.139-5.884-5.349-5.884-3.3,0-5.349,2.5-5.349,5.884s2.05,5.884,5.349,5.884c3.3.089,5.349-2.5,5.349-5.884m-11.856,0c0-3.922,2.585-6.953,6.508-6.953s6.508,3.031,6.508,6.953-2.585,6.953-6.508,6.953-6.508-2.942-6.508-6.953" transform="translate(-29.145 -104.7)" fill="#333" fill-rule="evenodd"/>
      <path id="Контур_9" data-name="Контур 9" d="M74.139,118.461,65.67,106.872v11.589H64.6V105h1.159l8.38,11.411V105H75.3v13.461Z" transform="translate(-31.349 -104.733)" fill="#333" fill-rule="evenodd"/>
      <path id="Контур_10" data-name="Контур 10" d="M81.8,116.567l.713-.891a5.686,5.686,0,0,0,4.19,1.961c2.763,0,3.566-1.515,3.566-2.674,0-3.922-8.112-1.872-8.112-6.6,0-2.229,1.961-3.566,4.457-3.566a5.822,5.822,0,0,1,4.546,1.872l-.8.891a4.826,4.826,0,0,0-3.833-1.694c-1.783,0-3.12,1.07-3.12,2.5,0,3.477,8.023,1.515,8.023,6.6,0,1.694-1.159,3.833-4.814,3.833a7.019,7.019,0,0,1-4.814-2.229" transform="translate(-33.216 -104.711)" fill="#333" fill-rule="evenodd"/>
      <path id="Контур_11" data-name="Контур 11" d="M101.357,118.461V106.07H96.9V105h9.984v1.07h-4.368v12.391Z" transform="translate(-34.855 -104.733)" fill="#333" fill-rule="evenodd"/>
      <path id="Контур_12" data-name="Контур 12" d="M120.845,108.922a2.811,2.811,0,0,0-3.031-2.853H114.07v5.794h3.744a2.832,2.832,0,0,0,3.031-2.942m0,9.539-3.744-5.527h-2.942v5.527H113V105h4.992a3.839,3.839,0,0,1,4.1,3.922,3.627,3.627,0,0,1-3.744,3.833l3.922,5.616h-1.426Z" transform="translate(-36.603 -104.733)" fill="#333" fill-rule="evenodd"/>
      <path id="Контур_13" data-name="Контур 13" d="M128.6,113.291V105h1.159v8.29c0,2.764,1.426,4.368,4.1,4.368s4.1-1.694,4.1-4.368V105h1.159v8.29c0,3.3-1.783,5.438-5.26,5.438-3.477-.089-5.26-2.139-5.26-5.438" transform="translate(-38.296 -104.733)" fill="#333" fill-rule="evenodd"/>
      <path id="Контур_14" data-name="Контур 14" d="M145.8,111.653a6.7,6.7,0,0,1,6.775-6.953,6.122,6.122,0,0,1,4.9,2.407l-.981.624a4.982,4.982,0,0,0-3.922-1.961,5.89,5.89,0,0,0,0,11.767,4.851,4.851,0,0,0,3.922-1.961l.981.624a6.122,6.122,0,0,1-4.9,2.407,6.652,6.652,0,0,1-6.775-6.953" transform="translate(-40.163 -104.7)" fill="#333" fill-rule="evenodd"/>
      <path id="Контур_15" data-name="Контур 15" d="M167.268,118.461V106.07H162.9V105h9.984v1.07h-4.457v12.391Z" transform="translate(-42.019 -104.733)" fill="#333" fill-rule="evenodd"/>
      <rect id="Прямоугольник_1" data-name="Прямоугольник 1" width="1.159" height="13.461" transform="translate(135.144 0.267)" fill="#333"/>
      <path id="Контур_16" data-name="Контур 16" d="M197.556,111.653c0-3.388-2.139-5.884-5.349-5.884-3.3,0-5.349,2.5-5.349,5.884s2.05,5.884,5.349,5.884c3.3.089,5.349-2.5,5.349-5.884m-11.856,0c0-3.922,2.585-6.953,6.508-6.953s6.508,3.031,6.508,6.953-2.585,6.953-6.508,6.953-6.508-2.942-6.508-6.953" transform="translate(-44.494 -104.7)" fill="#333" fill-rule="evenodd"/>
      <path id="Контур_17" data-name="Контур 17" d="M215.528,118.461l-8.469-11.589v11.589H205.9V105h1.159l8.469,11.411V105h1.159v13.461Z" transform="translate(-46.687 -104.733)" fill="#333" fill-rule="evenodd"/>
    </g>
  </g>
</svg>
